<mxfile host="app.diagrams.net" agent="Mozilla/5.0 (Windows NT 10.0; Win64; x64) AppleWebKit/537.36 (KHTML, like Gecko) Chrome/128.0.0.0 Safari/537.36" version="24.7.15">
  <diagram name="Página-1" id="8AXTR0uz0X-k1E9HTR9D">
    <mxGraphModel dx="1257" dy="657" grid="1" gridSize="10" guides="1" tooltips="1" connect="1" arrows="1" fold="1" page="1" pageScale="1" pageWidth="827" pageHeight="1169" math="0" shadow="0">
      <root>
        <mxCell id="0" />
        <mxCell id="1" parent="0" />
        <mxCell id="MhGacMzEQcQCnjgRqj64-1" value="Criação de Anotação" style="swimlane;whiteSpace=wrap" vertex="1" parent="1">
          <mxGeometry x="140" width="910" height="370" as="geometry" />
        </mxCell>
        <mxCell id="MhGacMzEQcQCnjgRqj64-2" style="edgeStyle=orthogonalEdgeStyle;rounded=0;orthogonalLoop=1;jettySize=auto;html=1;entryX=0;entryY=0.5;entryDx=0;entryDy=0;" edge="1" parent="MhGacMzEQcQCnjgRqj64-1" source="MhGacMzEQcQCnjgRqj64-3" target="MhGacMzEQcQCnjgRqj64-5">
          <mxGeometry relative="1" as="geometry" />
        </mxCell>
        <mxCell id="MhGacMzEQcQCnjgRqj64-3" value="Clicar na extensão" style="" vertex="1" parent="MhGacMzEQcQCnjgRqj64-1">
          <mxGeometry x="140" y="160" width="110" height="50" as="geometry" />
        </mxCell>
        <mxCell id="MhGacMzEQcQCnjgRqj64-4" style="edgeStyle=orthogonalEdgeStyle;rounded=0;orthogonalLoop=1;jettySize=auto;html=1;entryX=0;entryY=0.5;entryDx=0;entryDy=0;" edge="1" parent="MhGacMzEQcQCnjgRqj64-1" source="MhGacMzEQcQCnjgRqj64-5" target="MhGacMzEQcQCnjgRqj64-9">
          <mxGeometry relative="1" as="geometry" />
        </mxCell>
        <mxCell id="MhGacMzEQcQCnjgRqj64-5" value="Digitar o conteúdo&#xa;da anotação" style="" vertex="1" parent="MhGacMzEQcQCnjgRqj64-1">
          <mxGeometry x="300" y="160" width="110" height="50" as="geometry" />
        </mxCell>
        <mxCell id="MhGacMzEQcQCnjgRqj64-6" value="" style="edgeStyle=orthogonalEdgeStyle;rounded=0;orthogonalLoop=1;jettySize=auto;html=1;" edge="1" parent="MhGacMzEQcQCnjgRqj64-1" source="MhGacMzEQcQCnjgRqj64-7" target="MhGacMzEQcQCnjgRqj64-3">
          <mxGeometry relative="1" as="geometry" />
        </mxCell>
        <mxCell id="MhGacMzEQcQCnjgRqj64-7" value="Actor" style="shape=umlActor;verticalLabelPosition=bottom;verticalAlign=top;html=1;outlineConnect=0;" vertex="1" parent="MhGacMzEQcQCnjgRqj64-1">
          <mxGeometry x="60" y="165" width="24.5" height="40" as="geometry" />
        </mxCell>
        <mxCell id="MhGacMzEQcQCnjgRqj64-8" style="edgeStyle=orthogonalEdgeStyle;rounded=0;orthogonalLoop=1;jettySize=auto;html=1;exitX=1;exitY=0.5;exitDx=0;exitDy=0;entryX=0;entryY=0.5;entryDx=0;entryDy=0;" edge="1" parent="MhGacMzEQcQCnjgRqj64-1" source="MhGacMzEQcQCnjgRqj64-9" target="MhGacMzEQcQCnjgRqj64-10">
          <mxGeometry relative="1" as="geometry">
            <mxPoint x="690" y="275" as="targetPoint" />
          </mxGeometry>
        </mxCell>
        <mxCell id="MhGacMzEQcQCnjgRqj64-9" value="Clicar em Salvar &#xa;Anotação" style="" vertex="1" parent="MhGacMzEQcQCnjgRqj64-1">
          <mxGeometry x="500" y="160" width="110" height="50" as="geometry" />
        </mxCell>
        <mxCell id="MhGacMzEQcQCnjgRqj64-10" value="" style="ellipse;whiteSpace=wrap;html=1;aspect=fixed;fillColor=#FF215C;" vertex="1" parent="MhGacMzEQcQCnjgRqj64-1">
          <mxGeometry x="680" y="160" width="50" height="50" as="geometry" />
        </mxCell>
      </root>
    </mxGraphModel>
  </diagram>
</mxfile>
